<?xml version="1.0" encoding="utf-8"?>
<!-- Generator: Adobe Illustrator 27.4.1, SVG Export Plug-In . SVG Version: 6.00 Build 0)  -->
<svg version="1.1" xmlns="http://www.w3.org/2000/svg" xmlns:xlink="http://www.w3.org/1999/xlink" x="0px" y="0px"
	 viewBox="0 0 1920 1080" style="enable-background:new 0 0 1920 1080;" xml:space="preserve">
<style type="text/css">
	.st0{display:none;}
	.st1{fill:url(#SVGID_1_);}
	.st2{fill:none;stroke:#000000;stroke-width:17;stroke-miterlimit:10;}
	.st3{fill:url(#SVGID_00000047779434305614341530000013715000014421059474_);}
	.st4{fill:url(#SVGID_00000132775208417600039410000001759178132899905419_);}
	.st5{fill:url(#SVGID_00000173146228097989700950000004436657139170631310_);}
	.st6{fill:url(#SVGID_00000075162573812021084000000016600531091701149884_);}
	.st7{fill:url(#SVGID_00000094584483648021844140000017298708441005168010_);}
	.st8{fill:url(#SVGID_00000155146038982673293050000017580810904812321692_);}
	.st9{fill:url(#SVGID_00000090274033514421945710000014127971136026142655_);}
	.st10{fill:url(#SVGID_00000154390827968884094080000017885369649453271222_);}
	.st11{fill:url(#SVGID_00000116220345005147674940000015705818728987210927_);}
	.st12{fill:url(#SVGID_00000143588555370975227470000017963187154572410278_);}
	.st13{fill:url(#SVGID_00000006706688621213481680000006619405539180770992_);}
	.st14{fill:#009740;}
	.st15{fill:#C9971B;}
	.st16{fill:#FFFFFF;}
	.st17{fill:#010202;}
	.st18{fill:url(#SVGID_00000145776980285097723110000014162885617772067212_);}
	.st19{fill:url(#SVGID_00000083806733382804884890000008127067254557505199_);}
	.st20{fill:url(#SVGID_00000021112277884554041860000011040704897812229293_);}
	.st21{fill:url(#SVGID_00000177473498085191576360000006850251350129167525_);}
	.st22{fill:url(#SVGID_00000050638468973188365550000012943093910407009200_);}
	.st23{fill:url(#SVGID_00000180328098810657001340000014050027111382846624_);}
	.st24{fill:url(#SVGID_00000014617316756249476430000006072463310592827044_);}
	.st25{fill:url(#SVGID_00000008828832168728975900000018210136481502770830_);}
	.st26{fill:url(#SVGID_00000078740951133186210380000005570450956894844034_);}
	.st27{fill:url(#SVGID_00000135674839155799399110000007228436300273058688_);}
	.st28{fill:url(#SVGID_00000157266170826356883130000002881662552234278047_);}
	.st29{fill:url(#SVGID_00000161633369753967534460000003070546770621475517_);}
</style>
<g id="Capa_1" class="st0">
</g>
<g id="Capa_3">
</g>
<g id="Capa_2">
	<polygon class="st17" points="1018.7,731.5 1005.7,706.3 1155.4,616.3 1155.4,340.1 921.4,203.9 681.8,340.2 681.8,617.2 
		836.3,705.5 817.8,731.5 652,634.5 652,322.9 921.6,169.5 1185.2,323 1185.2,633.1 	"/>
	<rect x="903.7" y="357.2" class="st17" width="29.8" height="413.5"/>
	<rect x="989" y="488" class="st17" width="29.8" height="243.5"/>
	<rect x="817.8" y="488" class="st17" width="29.8" height="243.5"/>
	<g>
		<path class="st17" d="M699,867.8l-6.7,6.4c-4.6-4.8-9.7-7.2-15.4-7.2c-4.8,0-8.9,1.6-12.1,4.9c-3.3,3.3-4.9,7.3-4.9,12.1
			c0,3.4,0.7,6.3,2.2,8.9c1.5,2.6,3.5,4.6,6.2,6.1c2.7,1.5,5.6,2.2,8.9,2.2c2.8,0,5.3-0.5,7.6-1.6c2.3-1,4.8-2.9,7.6-5.7l6.5,6.8
			c-3.7,3.6-7.2,6.1-10.5,7.5c-3.3,1.4-7.1,2.1-11.3,2.1c-7.8,0-14.2-2.5-19.2-7.4c-5-5-7.5-11.3-7.5-19.1c0-5,1.1-9.5,3.4-13.4
			c2.3-3.9,5.5-7,9.7-9.4c4.2-2.4,8.8-3.6,13.7-3.6c4.1,0,8.1,0.9,12,2.6C692.9,862.1,696.2,864.6,699,867.8z"/>
		<path class="st17" d="M750.7,857.7c7.1,0,13.2,2.6,18.3,7.7c5.1,5.2,7.7,11.4,7.7,18.8c0,7.3-2.5,13.5-7.6,18.6
			c-5.1,5.1-11.2,7.6-18.4,7.6c-7.5,0-13.8-2.6-18.8-7.8c-5-5.2-7.5-11.4-7.5-18.6c0-4.8,1.2-9.2,3.5-13.3c2.3-4,5.5-7.2,9.6-9.6
			C741.6,858.9,746,857.7,750.7,857.7z M750.6,867.1c-4.7,0-8.6,1.6-11.7,4.9c-3.2,3.2-4.8,7.3-4.8,12.3c0,5.6,2,10,6,13.2
			c3.1,2.5,6.7,3.8,10.7,3.8c4.5,0,8.4-1.6,11.6-4.9s4.8-7.3,4.8-12.1c0-4.8-1.6-8.8-4.8-12.2C759.1,868.7,755.2,867.1,750.6,867.1z
			"/>
		<path class="st17" d="M805.4,859h9.2l21.5,33.1V859h9.6v50.3h-9.2l-21.5-33v33h-9.6V859z"/>
		<path class="st17" d="M876.4,859h9.6v32.5c0,2.8,0.2,4.8,0.7,5.9c0.5,1.2,1.3,2.1,2.4,2.8s2.5,1,4.1,1c1.7,0,3.1-0.4,4.4-1.2
			c1.2-0.8,2.1-1.8,2.5-3c0.5-1.2,0.7-3.5,0.7-6.8V859h9.6v30c0,5.1-0.3,8.6-0.9,10.5c-0.6,2-1.7,3.9-3.3,5.7
			c-1.6,1.8-3.5,3.2-5.6,4.1c-2.1,0.9-4.5,1.3-7.3,1.3c-3.6,0-6.8-0.8-9.5-2.5c-2.7-1.7-4.6-3.8-5.8-6.3c-1.2-2.5-1.7-6.8-1.7-12.8
			V859z"/>
		<path class="st17" d="M941.8,859h10.1c5.6,0,9.5,0.5,11.9,1.5c2.4,1,4.3,2.6,5.7,4.9c1.4,2.3,2.2,5,2.2,8.2c0,3.3-0.8,6.1-2.4,8.3
			c-1.6,2.2-4,3.9-7.2,5l11.9,22.4h-10.5l-11.3-21.3h-0.9v21.3h-9.6V859z M951.3,878.6h3c3,0,5.1-0.4,6.3-1.2s1.7-2.1,1.7-4
			c0-1.1-0.3-2.1-0.9-2.9c-0.6-0.8-1.3-1.4-2.3-1.7c-1-0.4-2.7-0.5-5.2-0.5h-2.6V878.6z"/>
		<path class="st17" d="M1001.3,909.2V859h7.9c4.6,0,7.9,0.3,10.1,0.9c3,0.8,5.4,2.3,7.2,4.4c1.8,2.2,2.7,4.7,2.7,7.7
			c0,1.9-0.4,3.7-1.2,5.2c-0.8,1.6-2.1,3-3.9,4.4c3.1,1.4,5.3,3.2,6.7,5.4c1.4,2.2,2.1,4.7,2.1,7.6c0,2.8-0.7,5.4-2.2,7.7
			c-1.5,2.3-3.3,4.1-5.6,5.2c-2.3,1.2-5.5,1.7-9.5,1.7H1001.3z M1010.9,868.1v10.6h2.1c2.3,0,4.1-0.5,5.2-1.5c1.1-1,1.7-2.3,1.7-4
			c0-1.6-0.5-2.8-1.6-3.7c-1.1-0.9-2.7-1.4-4.9-1.4H1010.9z M1010.9,887.2v12.9h2.4c4,0,6.7-0.5,8-1.5c1.4-1,2.1-2.5,2.1-4.4
			c0-2.2-0.8-3.9-2.4-5.1c-1.6-1.3-4.3-1.9-8.1-1.9H1010.9z"/>
		<path class="st17" d="M1076.8,859h9.7l19.3,50.3h-9.9l-3.9-10.4h-20.5l-4.1,10.4h-9.9L1076.8,859z M1081.7,872.3l-6.7,17.3h13.5
			L1081.7,872.3z"/>
		<path class="st17" d="M1137.7,859h9.3l11.7,35.1l11.8-35.1h9.3l8.4,50.3h-9.3l-5.4-31.8l-10.7,31.8h-8.4l-10.6-31.8l-5.5,31.8
			h-9.3L1137.7,859z"/>
	</g>
</g>
<g id="Capa_4" class="st0">
</g>
</svg>
