<?xml version="1.0" encoding="utf-8"?>
<!-- Generator: Adobe Illustrator 27.4.1, SVG Export Plug-In . SVG Version: 6.00 Build 0)  -->
<svg version="1.1" xmlns="http://www.w3.org/2000/svg" xmlns:xlink="http://www.w3.org/1999/xlink" x="0px" y="0px"
	 viewBox="0 0 721 833.4" style="enable-background:new 0 0 721 833.4;" xml:space="preserve">
<style type="text/css">
	.st0{display:none;}
	.st1{fill:url(#SVGID_1_);}
	.st2{fill:none;stroke:#000000;stroke-width:17;stroke-miterlimit:10;}
	.st3{fill:url(#SVGID_00000133525033089837824570000010795368293679714446_);}
	.st4{fill:url(#SVGID_00000123419839812804333000000008792277586315502253_);}
	.st5{fill:url(#SVGID_00000142155317712332533140000017216396937166267550_);}
	.st6{fill:url(#SVGID_00000173145806807468052900000011363305004668449189_);}
	.st7{fill:url(#SVGID_00000130636074617220411490000010893504015684135358_);}
	.st8{fill:url(#SVGID_00000094620116786881782540000014420379617980531111_);}
	.st9{fill:url(#SVGID_00000048476964756097530290000008918623788617746577_);}
	.st10{fill:url(#SVGID_00000146465727563730353710000005075352798799580569_);}
	.st11{fill:url(#SVGID_00000046315573848287109340000005691433573148133040_);}
	.st12{fill:url(#SVGID_00000134933642818198437650000000890019663353510794_);}
	.st13{fill:url(#SVGID_00000063625458475991178720000005785498828465498037_);}
	.st14{fill:#009740;}
	.st15{fill:#C9971B;}
	.st16{fill:#FFFFFF;}
	.st17{fill:#010202;}
	.st18{fill:url(#SVGID_00000148629963849920561190000001402965637398223247_);}
	.st19{fill:url(#SVGID_00000109749543729618924580000007244734565303752578_);}
	.st20{fill:url(#SVGID_00000151512963527066686970000006302878285741069697_);}
	.st21{fill:url(#SVGID_00000049191235895588581830000015922899691985685949_);}
	.st22{fill:url(#SVGID_00000165938136364821051400000008925583120357067160_);}
	.st23{fill:url(#SVGID_00000079478632576869379990000018163558286758781874_);}
	.st24{fill:url(#SVGID_00000024723001779289127380000013158453986440650655_);}
	.st25{fill:url(#SVGID_00000107587976670929934440000001786304425959773607_);}
	.st26{fill:url(#SVGID_00000139973821632720722580000016810896126217956238_);}
	.st27{fill:url(#SVGID_00000106106492658481779920000008996563780561143210_);}
	.st28{fill:url(#SVGID_00000000214897417595083680000010164285137345845637_);}
	.st29{fill:url(#SVGID_00000027601469003457134170000004030394926791266448_);}
</style>
<g id="Capa_1" class="st0">
</g>
<g id="Capa_3">
</g>
<g id="Capa_2">
	<g>
		<linearGradient id="SVGID_1_" gradientUnits="userSpaceOnUse" x1="81.3388" y1="311.1432" x2="614.5181" y2="311.1432">
			<stop  offset="0" style="stop-color:#F2CD7D"/>
			<stop  offset="0.23" style="stop-color:#B78844"/>
			<stop  offset="0.33" style="stop-color:#E8C273"/>
			<stop  offset="0.46" style="stop-color:#F7EFCB"/>
			<stop  offset="0.58" style="stop-color:#E8C273"/>
			<stop  offset="0.69" style="stop-color:#A37939"/>
			<stop  offset="1" style="stop-color:#E8C273"/>
		</linearGradient>
		<polygon class="st1" points="448.1,592.2 435,566.9 584.7,476.9 584.7,200.7 350.8,64.5 111.1,200.8 111.1,477.8 265.7,566.1 
			247.2,592.2 81.3,495.1 81.3,183.5 350.9,30.1 614.5,183.6 614.5,493.7 		"/>
	</g>
	
		<linearGradient id="SVGID_00000129916205406178716830000016305647122624962472_" gradientUnits="userSpaceOnUse" x1="333.0369" y1="424.5591" x2="388.3918" y2="424.5591">
		<stop  offset="0" style="stop-color:#F2CD7D"/>
		<stop  offset="0.23" style="stop-color:#B78844"/>
		<stop  offset="0.33" style="stop-color:#E8C273"/>
		<stop  offset="0.46" style="stop-color:#F7EFCB"/>
		<stop  offset="0.58" style="stop-color:#E8C273"/>
		<stop  offset="0.69" style="stop-color:#A37939"/>
		<stop  offset="0.893" style="stop-color:#E8C273"/>
	</linearGradient>
	
		<rect x="333" y="217.8" style="fill:url(#SVGID_00000129916205406178716830000016305647122624962472_);" width="29.8" height="413.5"/>
	
		<linearGradient id="SVGID_00000158723329693339519940000005465782042117407140_" gradientUnits="userSpaceOnUse" x1="418.2975" y1="470.4016" x2="469.067" y2="470.4016">
		<stop  offset="0" style="stop-color:#F2CD7D"/>
		<stop  offset="0.23" style="stop-color:#B78844"/>
		<stop  offset="0.33" style="stop-color:#E8C273"/>
		<stop  offset="0.46" style="stop-color:#F7EFCB"/>
		<stop  offset="0.58" style="stop-color:#E8C273"/>
		<stop  offset="0.69" style="stop-color:#A37939"/>
		<stop  offset="0.893" style="stop-color:#E8C273"/>
	</linearGradient>
	
		<rect x="418.3" y="348.6" style="fill:url(#SVGID_00000158723329693339519940000005465782042117407140_);" width="29.8" height="243.5"/>
	
		<linearGradient id="SVGID_00000052078462600512552100000009048776420464851082_" gradientUnits="userSpaceOnUse" x1="247.1911" y1="470.4016" x2="295.5813" y2="470.4016">
		<stop  offset="0" style="stop-color:#F2CD7D"/>
		<stop  offset="0.23" style="stop-color:#B78844"/>
		<stop  offset="0.33" style="stop-color:#E8C273"/>
		<stop  offset="0.46" style="stop-color:#F7EFCB"/>
		<stop  offset="0.58" style="stop-color:#E8C273"/>
		<stop  offset="0.69" style="stop-color:#A37939"/>
		<stop  offset="0.893" style="stop-color:#E8C273"/>
	</linearGradient>
	
		<rect x="247.2" y="348.6" style="fill:url(#SVGID_00000052078462600512552100000009048776420464851082_);" width="29.8" height="243.5"/>
	<g>
		
			<linearGradient id="SVGID_00000178203930461165116270000003045894793533384637_" gradientUnits="userSpaceOnUse" x1="79.6521" y1="744.7064" x2="128.3582" y2="744.7064">
			<stop  offset="0" style="stop-color:#F2CD7D"/>
			<stop  offset="0.23" style="stop-color:#B78844"/>
			<stop  offset="0.33" style="stop-color:#E8C273"/>
			<stop  offset="0.46" style="stop-color:#F7EFCB"/>
			<stop  offset="0.58" style="stop-color:#E8C273"/>
			<stop  offset="0.69" style="stop-color:#A37939"/>
			<stop  offset="1" style="stop-color:#E8C273"/>
		</linearGradient>
		<path style="fill:url(#SVGID_00000178203930461165116270000003045894793533384637_);" d="M128.4,728.4l-6.7,6.4
			c-4.6-4.8-9.7-7.2-15.4-7.2c-4.8,0-8.9,1.6-12.1,4.9c-3.3,3.3-4.9,7.3-4.9,12.1c0,3.4,0.7,6.3,2.2,8.9c1.5,2.6,3.5,4.6,6.2,6.1
			c2.7,1.5,5.6,2.2,8.9,2.2c2.8,0,5.3-0.5,7.6-1.6c2.3-1,4.8-2.9,7.6-5.7l6.5,6.8c-3.7,3.6-7.2,6.1-10.5,7.5
			c-3.3,1.4-7.1,2.1-11.3,2.1c-7.8,0-14.2-2.5-19.2-7.4c-5-5-7.5-11.3-7.5-19.1c0-5,1.1-9.5,3.4-13.4c2.3-3.9,5.5-7,9.7-9.4
			c4.2-2.4,8.8-3.6,13.7-3.6c4.1,0,8.1,0.9,12,2.6C122.3,722.7,125.6,725.2,128.4,728.4z"/>
		
			<linearGradient id="SVGID_00000141452894658715451680000004910957594792975799_" gradientUnits="userSpaceOnUse" x1="153.822" y1="744.7064" x2="206.0828" y2="744.7064">
			<stop  offset="0" style="stop-color:#F2CD7D"/>
			<stop  offset="0.23" style="stop-color:#B78844"/>
			<stop  offset="0.33" style="stop-color:#E8C273"/>
			<stop  offset="0.46" style="stop-color:#F7EFCB"/>
			<stop  offset="0.58" style="stop-color:#E8C273"/>
			<stop  offset="0.69" style="stop-color:#A37939"/>
			<stop  offset="1" style="stop-color:#E8C273"/>
		</linearGradient>
		<path style="fill:url(#SVGID_00000141452894658715451680000004910957594792975799_);" d="M180.1,718.3c7.1,0,13.2,2.6,18.3,7.7
			c5.1,5.2,7.7,11.4,7.7,18.8c0,7.3-2.5,13.5-7.6,18.6c-5.1,5.1-11.2,7.6-18.4,7.6c-7.5,0-13.8-2.6-18.8-7.8
			c-5-5.2-7.5-11.4-7.5-18.6c0-4.8,1.2-9.2,3.5-13.3c2.3-4,5.5-7.2,9.6-9.6C171,719.5,175.4,718.3,180.1,718.3z M180,727.7
			c-4.7,0-8.6,1.6-11.7,4.9c-3.2,3.2-4.8,7.3-4.8,12.3c0,5.6,2,10,6,13.2c3.1,2.5,6.7,3.8,10.7,3.8c4.5,0,8.4-1.6,11.6-4.9
			s4.8-7.3,4.8-12.1c0-4.8-1.6-8.8-4.8-12.2C188.5,729.3,184.6,727.7,180,727.7z"/>
		
			<linearGradient id="SVGID_00000052067485009123766270000004283423128498316421_" gradientUnits="userSpaceOnUse" x1="234.7254" y1="744.7064" x2="274.989" y2="744.7064">
			<stop  offset="0" style="stop-color:#F2CD7D"/>
			<stop  offset="0.23" style="stop-color:#B78844"/>
			<stop  offset="0.33" style="stop-color:#E8C273"/>
			<stop  offset="0.46" style="stop-color:#F7EFCB"/>
			<stop  offset="0.58" style="stop-color:#E8C273"/>
			<stop  offset="0.69" style="stop-color:#A37939"/>
			<stop  offset="1" style="stop-color:#E8C273"/>
		</linearGradient>
		<path style="fill:url(#SVGID_00000052067485009123766270000004283423128498316421_);" d="M234.7,719.6h9.2l21.5,33.1v-33.1h9.6
			v50.3h-9.2l-21.5-33v33h-9.6V719.6z"/>
		
			<linearGradient id="SVGID_00000160909309776216066410000004930414362692500926_" gradientUnits="userSpaceOnUse" x1="305.7166" y1="745.3387" x2="339.7596" y2="745.3387">
			<stop  offset="0" style="stop-color:#F2CD7D"/>
			<stop  offset="0.23" style="stop-color:#B78844"/>
			<stop  offset="0.33" style="stop-color:#E8C273"/>
			<stop  offset="0.46" style="stop-color:#F7EFCB"/>
			<stop  offset="0.58" style="stop-color:#E8C273"/>
			<stop  offset="0.69" style="stop-color:#A37939"/>
			<stop  offset="1" style="stop-color:#E8C273"/>
		</linearGradient>
		<path style="fill:url(#SVGID_00000160909309776216066410000004930414362692500926_);" d="M305.7,719.6h9.6v32.5
			c0,2.8,0.2,4.8,0.7,5.9c0.5,1.2,1.3,2.1,2.4,2.8s2.5,1,4.1,1c1.7,0,3.1-0.4,4.4-1.2c1.2-0.8,2.1-1.8,2.5-3
			c0.5-1.2,0.7-3.5,0.7-6.8v-31.3h9.6v30c0,5.1-0.3,8.6-0.9,10.5c-0.6,2-1.7,3.9-3.3,5.7c-1.6,1.8-3.5,3.2-5.6,4.1
			c-2.1,0.9-4.5,1.3-7.3,1.3c-3.6,0-6.8-0.8-9.5-2.5c-2.7-1.7-4.6-3.8-5.8-6.3c-1.2-2.5-1.7-6.8-1.7-12.8V719.6z"/>
		
			<linearGradient id="SVGID_00000181773377090475697090000006170451087082887080_" gradientUnits="userSpaceOnUse" x1="371.1023" y1="744.7064" x2="403.3172" y2="744.7064">
			<stop  offset="0" style="stop-color:#F2CD7D"/>
			<stop  offset="0.23" style="stop-color:#B78844"/>
			<stop  offset="0.33" style="stop-color:#E8C273"/>
			<stop  offset="0.46" style="stop-color:#F7EFCB"/>
			<stop  offset="0.58" style="stop-color:#E8C273"/>
			<stop  offset="0.69" style="stop-color:#A37939"/>
			<stop  offset="1" style="stop-color:#E8C273"/>
		</linearGradient>
		<path style="fill:url(#SVGID_00000181773377090475697090000006170451087082887080_);" d="M371.1,719.6h10.1
			c5.6,0,9.5,0.5,11.9,1.5c2.4,1,4.3,2.6,5.7,4.9c1.4,2.3,2.2,5,2.2,8.2c0,3.3-0.8,6.1-2.4,8.3c-1.6,2.2-4,3.9-7.2,5l11.9,22.4
			h-10.5l-11.3-21.3h-0.9v21.3h-9.6V719.6z M380.7,739.2h3c3,0,5.1-0.4,6.3-1.2s1.7-2.1,1.7-4c0-1.1-0.3-2.1-0.9-2.9
			c-0.6-0.8-1.3-1.4-2.3-1.7c-1-0.4-2.7-0.5-5.2-0.5h-2.6V739.2z"/>
		
			<linearGradient id="SVGID_00000045603457485961643820000004420219934464924829_" gradientUnits="userSpaceOnUse" x1="430.6433" y1="744.7064" x2="462.1228" y2="744.7064">
			<stop  offset="0" style="stop-color:#F2CD7D"/>
			<stop  offset="0.23" style="stop-color:#B78844"/>
			<stop  offset="0.33" style="stop-color:#E8C273"/>
			<stop  offset="0.46" style="stop-color:#F7EFCB"/>
			<stop  offset="0.58" style="stop-color:#E8C273"/>
			<stop  offset="0.69" style="stop-color:#A37939"/>
			<stop  offset="1" style="stop-color:#E8C273"/>
		</linearGradient>
		<path style="fill:url(#SVGID_00000045603457485961643820000004420219934464924829_);" d="M430.6,769.8v-50.3h7.9
			c4.6,0,7.9,0.3,10.1,0.9c3,0.8,5.4,2.3,7.2,4.4c1.8,2.2,2.7,4.7,2.7,7.7c0,1.9-0.4,3.7-1.2,5.2c-0.8,1.6-2.1,3-3.9,4.4
			c3.1,1.4,5.3,3.2,6.7,5.4c1.4,2.2,2.1,4.7,2.1,7.6c0,2.8-0.7,5.4-2.2,7.7c-1.5,2.3-3.3,4.1-5.6,5.2c-2.3,1.2-5.5,1.7-9.5,1.7
			H430.6z M440.2,728.7v10.6h2.1c2.3,0,4.1-0.5,5.2-1.5c1.1-1,1.7-2.3,1.7-4c0-1.6-0.5-2.8-1.6-3.7c-1.1-0.9-2.7-1.4-4.9-1.4H440.2z
			 M440.2,747.8v12.9h2.4c4,0,6.7-0.5,8-1.5c1.4-1,2.1-2.5,2.1-4.4c0-2.2-0.8-3.9-2.4-5.1c-1.6-1.3-4.3-1.9-8.1-1.9H440.2z"/>
		
			<linearGradient id="SVGID_00000142870714178735070800000013605356416865926589_" gradientUnits="userSpaceOnUse" x1="486.784" y1="744.7064" x2="535.2156" y2="744.7064">
			<stop  offset="0" style="stop-color:#F2CD7D"/>
			<stop  offset="0.23" style="stop-color:#B78844"/>
			<stop  offset="0.33" style="stop-color:#E8C273"/>
			<stop  offset="0.46" style="stop-color:#F7EFCB"/>
			<stop  offset="0.58" style="stop-color:#E8C273"/>
			<stop  offset="0.69" style="stop-color:#A37939"/>
			<stop  offset="1" style="stop-color:#E8C273"/>
		</linearGradient>
		<path style="fill:url(#SVGID_00000142870714178735070800000013605356416865926589_);" d="M506.2,719.6h9.7l19.3,50.3h-9.9
			l-3.9-10.4h-20.5l-4.1,10.4h-9.9L506.2,719.6z M511.1,732.9l-6.7,17.3h13.5L511.1,732.9z"/>
		
			<linearGradient id="SVGID_00000100384437520944395810000012578430279847037860_" gradientUnits="userSpaceOnUse" x1="558.3728" y1="744.7064" x2="617.572" y2="744.7064">
			<stop  offset="0" style="stop-color:#F2CD7D"/>
			<stop  offset="0.23" style="stop-color:#B78844"/>
			<stop  offset="0.33" style="stop-color:#E8C273"/>
			<stop  offset="0.46" style="stop-color:#F7EFCB"/>
			<stop  offset="0.58" style="stop-color:#E8C273"/>
			<stop  offset="0.69" style="stop-color:#A37939"/>
			<stop  offset="1" style="stop-color:#E8C273"/>
		</linearGradient>
		<path style="fill:url(#SVGID_00000100384437520944395810000012578430279847037860_);" d="M567.1,719.6h9.3l11.7,35.1l11.8-35.1
			h9.3l8.4,50.3h-9.3l-5.4-31.8l-10.7,31.8h-8.4l-10.6-31.8l-5.5,31.8h-9.3L567.1,719.6z"/>
	</g>
</g>
<g id="Capa_4" class="st0">
</g>
</svg>
